<?xml version="1.0" encoding="UTF-8" standalone="no"?>
<!-- Created with Inkscape (http://www.inkscape.org/) -->

<svg
   width="210mm"
   height="297mm"
   viewBox="0 0 210 297"
   version="1.1"
   id="svg5"
   inkscape:version="1.1.1 (3bf5ae0d25, 2021-09-20)"
   sodipodi:docname="logos.svg"
   xmlns:inkscape="http://www.inkscape.org/namespaces/inkscape"
   xmlns:sodipodi="http://sodipodi.sourceforge.net/DTD/sodipodi-0.dtd"
   xmlns="http://www.w3.org/2000/svg"
   xmlns:svg="http://www.w3.org/2000/svg">
  <sodipodi:namedview
     id="namedview7"
     pagecolor="#ffffff"
     bordercolor="#666666"
     borderopacity="1.0"
     inkscape:pageshadow="2"
     inkscape:pageopacity="0.0"
     inkscape:pagecheckerboard="0"
     inkscape:document-units="mm"
     showgrid="false"
     showborder="false"
     inkscape:zoom="5.12"
     inkscape:cx="-166.50391"
     inkscape:cy="1012.9883"
     inkscape:window-width="1680"
     inkscape:window-height="987"
     inkscape:window-x="-8"
     inkscape:window-y="-8"
     inkscape:window-maximized="1"
     inkscape:current-layer="layer1" />
  <defs
     id="defs2" />
  <g
     inkscape:label="Layer 1"
     inkscape:groupmode="layer"
     id="layer1">
    <g
       aria-label="IVI"
       id="text17967"
       style="font-size:10.5833px;line-height:1.25;letter-spacing:-2.75696px;word-spacing:-0.283104px;stroke-width:0.264583">
      <path
         id="path33951"
         style="font-family:'Times New Roman';-inkscape-font-specification:'Times New Roman, ';stroke-width:0.999999"
         d="M -221.34766 955.36914 L -221.34766 956.0918 L -220.41016 956.0918 C -219.78516 956.0918 -219.1862 956.24803 -218.61328 956.56055 C -218.20965 956.7949 -217.94272 957.07487 -217.8125 957.40039 C -217.64323 957.83007 -217.55859 958.71549 -217.55859 960.05664 L -217.55859 977.16602 C -217.55859 978.75455 -217.71484 979.75715 -218.02734 980.17383 C -218.52213 980.81184 -219.31641 981.13086 -220.41016 981.13086 L -221.34766 981.13086 L -221.34766 981.85352 L -210 981.85352 L -210 981.13086 L -210.95703 981.13086 C -211.58203 981.13086 -212.17448 980.9746 -212.73438 980.66211 C -213.15103 980.42773 -213.42447 980.14778 -213.55469 979.82227 C -213.72396 979.39258 -213.80859 978.50717 -213.80859 977.16602 L -213.80859 962.12109 L -204.9707 982.45898 L -204.24805 982.45898 L -196.19141 962.80273 L -196.19141 977.16602 C -196.19141 978.75455 -196.34766 979.75715 -196.66016 980.17383 C -197.15494 980.81184 -197.94922 981.13086 -199.04297 981.13086 L -199.98047 981.13086 L -199.98047 981.85352 L -188.63477 981.85352 L -188.63477 981.13086 L -189.5918 981.13086 C -190.21679 981.13086 -190.80925 980.9746 -191.36914 980.66211 C -191.7858 980.42773 -192.05728 980.14778 -192.1875 979.82227 C -192.35677 979.39258 -192.44141 978.50717 -192.44141 977.16602 L -192.44141 960.05664 C -192.44141 958.46811 -192.2806 957.46548 -191.95508 957.04883 C -191.46029 956.41079 -190.67252 956.0918 -189.5918 956.0918 L -188.63477 956.0918 L -188.63477 955.36914 L -191.04492 955.36914 L -199.20898 955.36914 L -199.98047 955.36914 L -199.98047 956.0918 L -199.20898 956.0918 C -199.05274 956.11825 -198.94206 956.13779 -198.87695 956.15039 C -197.97852 956.29361 -197.34049 956.54103 -196.96289 956.89258 C -196.58529 957.23112 -196.39648 957.5892 -196.39648 957.9668 C -196.39648 958.55275 -196.70248 959.60093 -197.31445 961.11133 L -203.56445 976.44336 L -210.30273 960.91602 C -210.90169 959.53581 -211.20117 958.52018 -211.20117 957.86914 C -211.20117 957.40038 -211.01888 957.01626 -210.6543 956.7168 C -210.28972 956.41728 -209.49544 956.20896 -208.27148 956.0918 L -208.27148 955.36914 L -210 955.36914 L -221.34766 955.36914 z "
         transform="scale(0.26458333)" />
    </g>
    <rect
       style="fill:none;stroke:#000000;stroke-width:0.114913;stroke-miterlimit:4;stroke-dasharray:none;stroke-dashoffset:0"
       id="rect38507"
       width="9.1467896"
       height="9.1467896"
       x="-58.81065"
       y="251.78511"
       ry="0.19843332" />
    <path
       id="rect38695"
       style="stroke:#000000;stroke-width:0.434317"
       d="M -221.52734 998.05859 C -221.94284 998.05859 -222.27734 998.39311 -222.27734 998.80859 L -222.27734 1031.8789 C -222.27734 1032.2944 -221.94283 1032.6289 -221.52734 1032.6289 L -188.45508 1032.6289 C -188.03958 1032.6289 -187.70508 1032.2944 -187.70508 1031.8789 L -187.70508 998.80859 C -187.70508 998.39307 -188.03959 998.05859 -188.45508 998.05859 L -221.52734 998.05859 z M -221.34766 1001.7988 L -210 1001.7988 L -208.27148 1001.7988 L -208.27148 1002.5215 C -209.49544 1002.6386 -210.28972 1002.8468 -210.6543 1003.1465 C -211.01888 1003.4459 -211.20117 1003.8301 -211.20117 1004.2988 C -211.20117 1004.9499 -210.90169 1005.9655 -210.30273 1007.3457 L -203.56445 1022.873 L -197.31445 1007.541 C -196.70248 1006.0306 -196.39648 1004.9824 -196.39648 1004.3965 C -196.39648 1004.0189 -196.58528 1003.6609 -196.96289 1003.3223 C -197.34049 1002.9707 -197.97852 1002.7233 -198.87695 1002.5801 C -198.94207 1002.5676 -199.05274 1002.5479 -199.20898 1002.5215 L -199.98047 1002.5215 L -199.98047 1001.7988 L -199.20898 1001.7988 L -191.04492 1001.7988 L -188.63477 1001.7988 L -188.63477 1002.5215 L -189.5918 1002.5215 C -190.67251 1002.5215 -191.46029 1002.8405 -191.95508 1003.4785 C -192.28059 1003.8951 -192.44141 1004.8978 -192.44141 1006.4863 L -192.44141 1023.5957 C -192.44141 1024.9368 -192.35679 1025.8223 -192.1875 1026.252 C -192.05728 1026.5774 -191.7858 1026.8575 -191.36914 1027.0918 C -190.80925 1027.4044 -190.21679 1027.5605 -189.5918 1027.5605 L -188.63477 1027.5605 L -188.63477 1028.2832 L -199.98047 1028.2832 L -199.98047 1027.5605 L -199.04297 1027.5605 C -197.94922 1027.5605 -197.15494 1027.2415 -196.66016 1026.6035 C -196.34765 1026.1869 -196.19141 1025.1842 -196.19141 1023.5957 L -196.19141 1009.2324 L -204.24805 1028.8887 L -204.9707 1028.8887 L -213.80859 1008.5508 L -213.80859 1023.5957 C -213.80859 1024.9368 -213.72397 1025.8223 -213.55469 1026.252 C -213.42447 1026.5774 -213.15102 1026.8575 -212.73438 1027.0918 C -212.17447 1027.4044 -211.58203 1027.5605 -210.95703 1027.5605 L -210 1027.5605 L -210 1028.2832 L -221.34766 1028.2832 L -221.34766 1027.5605 L -220.41016 1027.5605 C -219.31641 1027.5605 -218.52213 1027.2415 -218.02734 1026.6035 C -217.71484 1026.1869 -217.55859 1025.1842 -217.55859 1023.5957 L -217.55859 1006.4863 C -217.55859 1005.1452 -217.64321 1004.2598 -217.8125 1003.8301 C -217.94272 1003.5046 -218.20965 1003.2246 -218.61328 1002.9902 C -219.1862 1002.6776 -219.78516 1002.5215 -220.41016 1002.5215 L -221.34766 1002.5215 L -221.34766 1001.7988 z "
       transform="scale(0.26458333)" />
    <g
       aria-label="IVI"
       id="g38745"
       style="font-size:10.5833px;line-height:1.25;letter-spacing:-2.75696px;word-spacing:-0.283104px;stroke-width:0.264583;fill:#ff4d3d;fill-opacity:1"
       transform="translate(14.624702)">
      <path
         id="path38743"
         style="font-family:'Times New Roman';-inkscape-font-specification:'Times New Roman, ';stroke-width:0.999999;fill:#ff4d3d;fill-opacity:1"
         d="m -221.34766,955.36914 v 0.72266 h 0.9375 c 0.625,0 1.22396,0.15623 1.79688,0.46875 0.40363,0.23435 0.67056,0.51432 0.80078,0.83984 0.16927,0.42968 0.25391,1.3151 0.25391,2.65625 v 17.10938 c 0,1.58853 -0.15625,2.59113 -0.46875,3.00781 -0.49479,0.63801 -1.28907,0.95703 -2.38282,0.95703 h -0.9375 v 0.72266 H -210 v -0.72266 h -0.95703 c -0.625,0 -1.21745,-0.15626 -1.77735,-0.46875 -0.41665,-0.23438 -0.69009,-0.51433 -0.82031,-0.83984 -0.16927,-0.42969 -0.2539,-1.3151 -0.2539,-2.65625 v -15.04493 l 8.83789,20.33789 h 0.72265 l 8.05664,-19.65625 v 14.36329 c 0,1.58853 -0.15625,2.59113 -0.46875,3.00781 -0.49478,0.63801 -1.28906,0.95703 -2.38281,0.95703 h -0.9375 v 0.72266 h 11.3457 v -0.72266 h -0.95703 c -0.62499,0 -1.21745,-0.15626 -1.77734,-0.46875 -0.41666,-0.23438 -0.68814,-0.51433 -0.81836,-0.83984 -0.16927,-0.42969 -0.25391,-1.3151 -0.25391,-2.65625 v -17.10938 c 0,-1.58853 0.16081,-2.59116 0.48633,-3.00781 0.49479,-0.63804 1.28256,-0.95703 2.36328,-0.95703 h 0.95703 v -0.72266 h -2.41015 -8.16406 -0.77149 v 0.72266 h 0.77149 c 0.15624,0.0264 0.26692,0.046 0.33203,0.0586 0.89843,0.14322 1.53646,0.39064 1.91406,0.74219 0.3776,0.33854 0.56641,0.69662 0.56641,1.07422 0,0.58595 -0.306,1.63413 -0.91797,3.14453 l -6.25,15.33203 -6.73828,-15.52734 c -0.59896,-1.38021 -0.89844,-2.39584 -0.89844,-3.04688 0,-0.46876 0.18229,-0.85288 0.54687,-1.15234 0.36458,-0.29952 1.15886,-0.50784 2.38282,-0.625 v -0.72266 H -210 Z"
         transform="scale(0.26458333)" />
    </g>
    <rect
       style="fill:none;stroke:#ff4d3d;stroke-width:0.114913;stroke-miterlimit:4;stroke-dasharray:none;stroke-dashoffset:0;stroke-opacity:1"
       id="rect38747"
       width="9.1467896"
       height="9.1467896"
       x="-44.185947"
       y="251.78511"
       ry="0.19843332" />
    <rect
       style="fill:#ff4d3d;stroke:#ff4d3d;stroke-width:0.114913;stroke-miterlimit:4;stroke-dasharray:none;stroke-dashoffset:0;fill-opacity:1;stroke-opacity:1"
       id="rect38749"
       width="9.1467896"
       height="9.1467896"
       x="-44.185947"
       y="264.06985"
       ry="0.19843332" />
    <g
       aria-label="IVI"
       id="g38753"
       style="font-size:10.5833px;line-height:1.25;letter-spacing:-2.75696px;word-spacing:-0.283104px;fill:#ffffff;stroke-width:0.264583"
       transform="translate(14.624702,12.284749)">
      <path
         id="path38751"
         style="font-family:'Times New Roman';-inkscape-font-specification:'Times New Roman, ';fill:#ffffff;stroke-width:0.999999"
         d="m -221.34766,955.36914 v 0.72266 h 0.9375 c 0.625,0 1.22396,0.15623 1.79688,0.46875 0.40363,0.23435 0.67056,0.51432 0.80078,0.83984 0.16927,0.42968 0.25391,1.3151 0.25391,2.65625 v 17.10938 c 0,1.58853 -0.15625,2.59113 -0.46875,3.00781 -0.49479,0.63801 -1.28907,0.95703 -2.38282,0.95703 h -0.9375 v 0.72266 H -210 v -0.72266 h -0.95703 c -0.625,0 -1.21745,-0.15626 -1.77735,-0.46875 -0.41665,-0.23438 -0.69009,-0.51433 -0.82031,-0.83984 -0.16927,-0.42969 -0.2539,-1.3151 -0.2539,-2.65625 v -15.04493 l 8.83789,20.33789 h 0.72265 l 8.05664,-19.65625 v 14.36329 c 0,1.58853 -0.15625,2.59113 -0.46875,3.00781 -0.49478,0.63801 -1.28906,0.95703 -2.38281,0.95703 h -0.9375 v 0.72266 h 11.3457 v -0.72266 h -0.95703 c -0.62499,0 -1.21745,-0.15626 -1.77734,-0.46875 -0.41666,-0.23438 -0.68814,-0.51433 -0.81836,-0.83984 -0.16927,-0.42969 -0.25391,-1.3151 -0.25391,-2.65625 v -17.10938 c 0,-1.58853 0.16081,-2.59116 0.48633,-3.00781 0.49479,-0.63804 1.28256,-0.95703 2.36328,-0.95703 h 0.95703 v -0.72266 h -2.41015 -8.16406 -0.77149 v 0.72266 h 0.77149 c 0.15624,0.0264 0.26692,0.046 0.33203,0.0586 0.89843,0.14322 1.53646,0.39064 1.91406,0.74219 0.3776,0.33854 0.56641,0.69662 0.56641,1.07422 0,0.58595 -0.306,1.63413 -0.91797,3.14453 l -6.25,15.33203 -6.73828,-15.52734 c -0.59896,-1.38021 -0.89844,-2.39584 -0.89844,-3.04688 0,-0.46876 0.18229,-0.85288 0.54687,-1.15234 0.36458,-0.29952 1.15886,-0.50784 2.38282,-0.625 v -0.72266 H -210 Z"
         transform="scale(0.26458333)" />
    </g>
  </g>
</svg>
